<svg width="29" height="34" viewBox="0 0 29 34" fill="none" xmlns="http://www.w3.org/2000/svg">
<path id="Vector" d="M28.4135 26.4192C27.9289 27.5488 27.3302 28.626 26.6268 29.634C25.687 30.9762 24.9153 31.9037 24.3238 32.42C23.405 33.2635 22.418 33.6975 21.3628 33.722C20.6068 33.722 19.6933 33.5067 18.6293 33.0692C17.5618 32.6335 16.5818 32.42 15.684 32.42C14.7443 32.42 13.7363 32.6335 12.6565 33.0692C11.5785 33.5067 10.707 33.736 10.0403 33.757C9.03051 33.8007 8.02076 33.3562 7.01451 32.42C6.37226 31.86 5.56901 30.8975 4.60476 29.536C3.57226 28.0852 2.72351 26.3965 2.05851 24.4767C1.34626 22.3995 0.989258 20.3905 0.989258 18.4445C0.989258 16.2167 1.47051 14.2935 2.43476 12.6835C3.16407 11.419 4.20672 10.3637 5.46226 9.61923C6.70033 8.87665 8.11366 8.47681 9.55726 8.46073C10.3623 8.46073 11.4175 8.70923 12.7248 9.19923C14.032 9.68923 14.872 9.93773 15.2378 9.93773C15.5143 9.93773 16.4435 9.64548 18.0255 9.06623C19.5183 8.52898 20.7783 8.30673 21.8108 8.39423C24.6108 8.61998 26.7125 9.72248 28.1108 11.7105C25.6083 13.2277 24.371 15.3505 24.3955 18.0752C24.4165 20.198 25.1883 21.9637 26.7003 23.3655C27.3687 24.0052 28.1487 24.517 29.0015 24.8757C28.816 25.413 28.62 25.9257 28.4135 26.4192ZM21.9963 1.16498C21.9963 2.82748 21.3873 4.38148 20.178 5.81823C18.715 7.52623 16.9475 8.51498 15.0313 8.35923C15.0062 8.15017 14.9939 7.93978 14.9945 7.72923C14.9945 6.13148 15.6875 4.42348 16.9248 3.02523C17.5408 2.31823 18.3248 1.72848 19.275 1.25948C20.2235 0.79748 21.1195 0.54198 21.963 0.49823C21.9858 0.72223 21.9963 0.94448 21.9963 1.16498Z" fill="black"/>
</svg>
