<svg width="74" height="74" viewBox="0 0 74 74" fill="none" xmlns="http://www.w3.org/2000/svg">
<g filter="url(#filter0_i_53_282)">
<path d="M37.0038 0.340637C16.7565 0.340637 0.34082 16.7563 0.34082 37.0036C0.34082 55.3003 13.7462 70.4656 31.2765 73.2266V47.604H21.9632V37.0036H31.2765V28.926C31.2765 19.73 36.7508 14.659 45.1218 14.659C49.1332 14.659 53.3352 15.374 53.3352 15.374V24.3903H48.7005C44.1538 24.3903 42.7312 27.221 42.7312 30.1213V36.9963H52.8915L51.2672 47.5966H42.7312V73.2193C60.2615 70.473 73.6668 55.304 73.6668 37.0036C73.6668 16.7563 57.2512 0.340637 37.0038 0.340637Z" fill="white"/>
</g>
<defs>
<filter id="filter0_i_53_282" x="0.34082" y="0.340637" width="73.3262" height="76.886" filterUnits="userSpaceOnUse" color-interpolation-filters="sRGB">
<feFlood flood-opacity="0" result="BackgroundImageFix"/>
<feBlend mode="normal" in="SourceGraphic" in2="BackgroundImageFix" result="shape"/>
<feColorMatrix in="SourceAlpha" type="matrix" values="0 0 0 0 0 0 0 0 0 0 0 0 0 0 0 0 0 0 127 0" result="hardAlpha"/>
<feOffset dy="4"/>
<feGaussianBlur stdDeviation="2"/>
<feComposite in2="hardAlpha" operator="arithmetic" k2="-1" k3="1"/>
<feColorMatrix type="matrix" values="0 0 0 0 0 0 0 0 0 0 0 0 0 0 0 0 0 0 0.25 0"/>
<feBlend mode="normal" in2="shape" result="effect1_innerShadow_53_282"/>
</filter>
</defs>
</svg>
