<svg width="29" height="32" viewBox="0 0 29 32" fill="none" xmlns="http://www.w3.org/2000/svg">
<path id="Vector" d="M15.6695 15.328L20.8442 10.1532L4.13 0.759225C3.02225 0.160725 1.9845 0.0767253 1.0745 0.731225L15.6695 15.328ZM21.7263 21.3865L27.1058 18.3607C28.1558 17.7727 28.7315 16.9397 28.7315 16.0157C28.7315 15.0935 28.1558 14.2587 27.1075 13.6707L22.2373 10.9355L16.7545 16.4165L21.7263 21.3865ZM0.175 2.00347C0.0629998 2.34822 0 2.73322 0 3.15497V28.8887C0 29.5555 0.147 30.1295 0.413 30.5862L14.5828 16.4147L0.175 2.00347ZM15.6695 17.4997L1.5785 31.5925C1.848 31.6957 2.1385 31.75 2.44475 31.75C2.99075 31.75 3.5595 31.589 4.13875 31.267L20.335 22.1722L15.6695 17.4997Z" fill="black"/>
</svg>
