<svg width="64" height="64" viewBox="0 0 64 64" fill="none" xmlns="http://www.w3.org/2000/svg">
<g filter="url(#filter0_i_53_279)">
<path d="M63.3143 19.0675C63.279 16.4167 62.7827 13.7922 61.8478 11.3115C61.037 9.219 59.7986 7.31867 58.2119 5.73188C56.6251 4.14509 54.7247 2.90675 52.6323 2.09597C50.1834 1.17672 47.5964 0.679666 44.9813 0.625972C41.6143 0.475472 40.5468 0.433472 31.9998 0.433472C23.4528 0.433472 22.3573 0.433472 19.0148 0.625972C16.4008 0.680061 13.815 1.17711 11.3673 2.09597C9.27446 2.90618 7.37383 4.14433 5.78697 5.73119C4.20011 7.31805 2.96197 9.21868 2.15176 11.3115C1.23067 13.7584 0.734689 16.3449 0.685258 18.959C0.534758 22.3295 0.489258 23.397 0.489258 31.944C0.489258 40.491 0.489258 41.583 0.685258 44.929C0.737758 47.547 1.23126 50.13 2.15176 52.5835C2.96333 54.6756 4.20239 56.5755 5.78978 58.1617C7.37717 59.7479 9.27798 60.9855 11.3708 61.7955C13.8118 62.7517 16.3981 63.2843 19.0183 63.3705C22.3888 63.521 23.4563 63.5665 32.0033 63.5665C40.5503 63.5665 41.6458 63.5665 44.9883 63.3705C47.6033 63.319 50.1905 62.8231 52.6393 61.904C54.7312 61.0923 56.631 59.8536 58.2177 58.2669C59.8044 56.6803 61.043 54.7804 61.8548 52.6885C62.7753 50.2385 63.2688 47.6555 63.3213 45.034C63.4718 41.667 63.5173 40.5995 63.5173 32.049C63.5103 23.502 63.5103 22.417 63.3143 19.0675ZM31.9788 48.107C23.0398 48.107 15.7983 40.8655 15.7983 31.9265C15.7983 22.9875 23.0398 15.746 31.9788 15.746C36.2701 15.746 40.3857 17.4507 43.4201 20.4851C46.4545 23.5196 48.1593 27.6351 48.1593 31.9265C48.1593 36.2178 46.4545 40.3334 43.4201 43.3678C40.3857 46.4022 36.2701 48.107 31.9788 48.107ZM48.8033 18.9205C48.3077 18.9209 47.8168 18.8237 47.3588 18.6342C46.9009 18.4448 46.4848 18.1669 46.1343 17.8164C45.7839 17.466 45.506 17.0499 45.3165 16.5919C45.1271 16.1339 45.0298 15.6431 45.0303 15.1475C45.0303 14.6522 45.1278 14.1618 45.3173 13.7043C45.5069 13.2467 45.7846 12.831 46.1348 12.4808C46.485 12.1306 46.9008 11.8528 47.3583 11.6633C47.8159 11.4738 48.3063 11.3762 48.8015 11.3762C49.2968 11.3762 49.7872 11.4738 50.2447 11.6633C50.7023 11.8528 51.118 12.1306 51.4682 12.4808C51.8184 12.831 52.0962 13.2467 52.2857 13.7043C52.4752 14.1618 52.5728 14.6522 52.5728 15.1475C52.5728 17.2335 50.8858 18.9205 48.8033 18.9205Z" fill="white"/>
</g>
<defs>
<filter id="filter0_i_53_279" x="0.489258" y="0.433472" width="63.0278" height="67.133" filterUnits="userSpaceOnUse" color-interpolation-filters="sRGB">
<feFlood flood-opacity="0" result="BackgroundImageFix"/>
<feBlend mode="normal" in="SourceGraphic" in2="BackgroundImageFix" result="shape"/>
<feColorMatrix in="SourceAlpha" type="matrix" values="0 0 0 0 0 0 0 0 0 0 0 0 0 0 0 0 0 0 127 0" result="hardAlpha"/>
<feOffset dy="4"/>
<feGaussianBlur stdDeviation="2"/>
<feComposite in2="hardAlpha" operator="arithmetic" k2="-1" k3="1"/>
<feColorMatrix type="matrix" values="0 0 0 0 0 0 0 0 0 0 0 0 0 0 0 0 0 0 0.25 0"/>
<feBlend mode="normal" in2="shape" result="effect1_innerShadow_53_279"/>
</filter>
</defs>
</svg>
