<svg width="73" height="60" viewBox="0 0 73 60" fill="none" xmlns="http://www.w3.org/2000/svg">
<g filter="url(#filter0_i_53_284)">
<path d="M64.9878 15.3223C65.0355 15.964 65.0355 16.602 65.0355 17.24C65.0355 36.765 50.1745 59.2637 23.0155 59.2637C14.6482 59.2637 6.87483 56.84 0.333496 52.6307C1.5215 52.7663 2.6655 52.814 3.90116 52.814C10.5488 52.8301 17.0082 50.6072 22.2382 46.5037C19.156 46.4479 16.1683 45.431 13.692 43.595C11.2158 41.759 9.37471 39.1956 8.42583 36.2627C9.33883 36.3983 10.2555 36.49 11.2162 36.49C12.5398 36.49 13.8708 36.3067 15.1065 35.9877C11.7616 35.3123 8.7539 33.4993 6.59476 30.8568C4.43563 28.2144 3.25837 24.9057 3.26316 21.4933V21.31C5.23216 22.4063 7.5165 23.092 9.9365 23.1837C7.90915 21.8365 6.2468 20.0084 5.09774 17.8626C3.94868 15.7167 3.34864 13.3198 3.35116 10.8857C3.35116 8.143 4.08083 5.62766 5.3605 3.435C9.07167 8.00007 13.7003 11.7347 18.9467 14.3971C24.1931 17.0594 29.9402 18.5901 35.8158 18.89C35.5885 17.79 35.4492 16.6497 35.4492 15.5057C35.4482 13.5659 35.8296 11.6449 36.5714 9.85254C37.3133 8.06021 38.4012 6.43167 39.7729 5.06002C41.1445 3.68837 42.773 2.6005 44.5654 1.85862C46.3577 1.11673 48.2787 0.735366 50.2185 0.73633C54.4718 0.73633 58.3108 2.51833 61.0095 5.40033C64.316 4.76093 67.4868 3.55388 70.3815 1.83266C69.2793 5.24565 66.9706 8.13971 63.8878 9.97266C66.8204 9.63819 69.6864 8.86699 72.3908 7.68466C70.371 10.6294 67.8681 13.2116 64.9878 15.3223Z" fill="white"/>
</g>
<defs>
<filter id="filter0_i_53_284" x="0.333496" y="0.736328" width="72.0571" height="62.5273" filterUnits="userSpaceOnUse" color-interpolation-filters="sRGB">
<feFlood flood-opacity="0" result="BackgroundImageFix"/>
<feBlend mode="normal" in="SourceGraphic" in2="BackgroundImageFix" result="shape"/>
<feColorMatrix in="SourceAlpha" type="matrix" values="0 0 0 0 0 0 0 0 0 0 0 0 0 0 0 0 0 0 127 0" result="hardAlpha"/>
<feOffset dy="4"/>
<feGaussianBlur stdDeviation="2"/>
<feComposite in2="hardAlpha" operator="arithmetic" k2="-1" k3="1"/>
<feColorMatrix type="matrix" values="0 0 0 0 0 0 0 0 0 0 0 0 0 0 0 0 0 0 0.25 0"/>
<feBlend mode="normal" in2="shape" result="effect1_innerShadow_53_284"/>
</filter>
</defs>
</svg>
