<svg width="auto" height="auto" viewBox="0 0 873 909" fill="none" xmlns="http://www.w3.org/2000/svg">
<path d="M468.5 909C406.976 909 346.054 897.244 289.213 874.403C232.372 851.562 180.725 818.084 137.22 775.88C93.7161 733.676 59.2066 683.572 35.6623 628.429C12.118 573.287 -6.03854e-05 514.185 2.2568e-10 454.5C6.03859e-05 394.814 12.1182 335.712 35.6627 280.57C59.2071 225.427 93.7166 175.324 137.221 133.12C180.725 90.9153 232.372 57.4371 289.214 34.5965C346.055 11.7558 406.977 -0.000114553 468.501 8.37178e-10L881.5 8.3719e-10V478V909H468.5Z"/>
</svg>
