<svg width="425" height="62" viewBox="0 0 425 62" fill="none" xmlns="http://www.w3.org/2000/svg">
<g filter="url(#filter0_i_53_264)">
<path d="M0.48 3.672H26.208V9.432H8.096V21.528H23.008L22.048 27.352H8.096V41.24H27.168V47H0.48V3.672ZM46.932 21.784C46.164 21.784 45.396 21.976 44.628 22.36C43.86 22.744 43.1773 23.2773 42.58 23.96C41.9827 24.6 41.492 25.3893 41.108 26.328C40.724 27.2667 40.532 28.312 40.532 29.464V47H33.236V30.872C33.236 28.312 33.0653 26.1787 32.724 24.472C32.3827 22.7227 32.02 21.3147 31.636 20.248C31.1667 19.0107 30.6547 18.008 30.1 17.24L35.86 14.936C36.244 15.4053 36.6493 15.9813 37.076 16.664C37.4173 17.2613 37.7587 17.9653 38.1 18.776C38.4413 19.5867 38.7187 20.5467 38.932 21.656C39.7853 19.1813 41.0227 17.4107 42.644 16.344C44.2653 15.2347 46.1 14.68 48.148 14.68C49.1293 14.68 50.0467 14.808 50.9 15.064C51.7533 15.2773 52.1587 15.384 52.116 15.384L50.068 22.488C50.1107 22.488 49.8547 22.3813 49.3 22.168C48.788 21.912 47.9987 21.784 46.932 21.784ZM52.4275 31.832C52.4275 28.9733 52.8115 26.456 53.5795 24.28C54.3902 22.104 55.4782 20.2907 56.8435 18.84C58.2515 17.3467 59.8942 16.2373 61.7715 15.512C63.6488 14.744 65.6755 14.36 67.8515 14.36C69.7715 14.36 71.3928 14.5947 72.7155 15.064C74.0808 15.5333 75.1902 16.1733 76.0435 16.984C76.8968 17.7947 77.5155 18.7547 77.8995 19.864C78.3262 20.9733 78.5395 22.168 78.5395 23.448C78.5395 24.984 78.1128 26.456 77.2595 27.864C76.4062 29.2293 75.1688 30.4453 73.5475 31.512C71.9688 32.536 70.0488 33.368 67.7875 34.008C65.5262 34.6053 62.9875 34.9253 60.1715 34.968C60.2995 35.9493 60.4915 36.888 60.7475 37.784C61.0462 38.6373 61.4515 39.4053 61.9635 40.088C62.5182 40.728 63.2222 41.24 64.0755 41.624C64.9288 42.008 65.9955 42.2 67.2755 42.2C68.2142 42.2 69.2168 42.0933 70.2835 41.88C71.3502 41.6667 72.3315 41.4107 73.2275 41.112C74.2942 40.7707 75.3395 40.3867 76.3635 39.96L78.2835 44.504C77.1742 45.0587 75.9795 45.5493 74.6995 45.976C73.5902 46.36 72.3102 46.7013 70.8595 47C69.4088 47.2987 67.8728 47.448 66.2515 47.448C63.7768 47.448 61.6648 47.0853 59.9155 46.36C58.1662 45.592 56.7368 44.5253 55.6275 43.16C54.5182 41.7947 53.7075 40.152 53.1955 38.232C52.6835 36.312 52.4275 34.1787 52.4275 31.832ZM67.2755 19.352C65.8675 19.352 64.6942 19.6933 63.7555 20.376C62.8595 21.016 62.1342 21.8693 61.5795 22.936C61.0248 23.96 60.6195 25.1333 60.3635 26.456C60.1502 27.736 60.0222 29.0373 59.9795 30.36C62.0275 30.2747 63.7555 30.0187 65.1635 29.592C66.6142 29.1227 67.7875 28.568 68.6835 27.928C69.5795 27.2453 70.2195 26.52 70.6035 25.752C71.0302 24.984 71.2435 24.216 71.2435 23.448C71.2435 22.2107 70.8808 21.2293 70.1555 20.504C69.4302 19.736 68.4702 19.352 67.2755 19.352ZM94.0055 14.36C95.2428 14.36 96.4588 14.488 97.6535 14.744C98.8482 15 99.9148 15.2987 100.854 15.64C101.963 16.024 102.987 16.4293 103.926 16.856L101.75 21.848C100.896 21.464 100.043 21.1227 99.1895 20.824C98.4642 20.568 97.6535 20.3333 96.7575 20.12C95.9042 19.864 95.0508 19.736 94.1975 19.736C93.2162 19.736 92.3628 19.9707 91.6375 20.44C90.9548 20.9093 90.6135 21.6133 90.6135 22.552C90.6135 24.984 92.3842 26.8827 95.9255 28.248C97.2482 28.76 98.4428 29.3147 99.5095 29.912C100.576 30.4667 101.472 31.128 102.198 31.896C102.966 32.664 103.542 33.56 103.926 34.584C104.31 35.5653 104.502 36.7387 104.502 38.104C104.502 39.2987 104.246 40.472 103.734 41.624C103.264 42.776 102.539 43.8 101.558 44.696C100.619 45.592 99.4455 46.3173 98.0375 46.872C96.6722 47.384 95.1148 47.64 93.3655 47.64C91.9575 47.64 90.5708 47.4693 89.2055 47.128C87.8402 46.8293 86.6028 46.488 85.4935 46.104C84.4268 45.72 83.5735 45.3573 82.9335 45.016L81.9735 44.568L84.3415 39.192L85.1735 39.64C85.7282 39.9813 86.4322 40.344 87.2855 40.728C88.1388 41.112 89.0562 41.4747 90.0375 41.816C91.0188 42.1147 91.9148 42.264 92.7255 42.264C94.2188 42.264 95.3282 41.9653 96.0535 41.368C96.7788 40.7707 97.1415 39.9813 97.1415 39C97.1415 37.8907 96.7362 36.888 95.9255 35.992C95.1575 35.0533 93.9842 34.2853 92.4055 33.688C89.1202 32.4507 86.7522 31.0427 85.3015 29.464C83.8935 27.8853 83.1895 25.8373 83.1895 23.32C83.1895 22.1253 83.4668 20.9947 84.0215 19.928C84.5762 18.8187 85.3228 17.8587 86.2615 17.048C87.2428 16.1947 88.3948 15.5333 89.7175 15.064C91.0402 14.5947 92.4695 14.36 94.0055 14.36ZM134.005 47.256C131.744 47.256 130.016 46.5947 128.821 45.272C127.626 43.9067 127.029 42.1573 127.029 40.024V15.128H134.325V39.384C134.325 40.3653 134.474 41.0267 134.773 41.368C135.072 41.7093 135.52 41.88 136.117 41.88C136.288 41.88 136.458 41.88 136.629 41.88C136.842 41.88 137.034 41.8587 137.205 41.816C137.376 41.816 137.568 41.7947 137.781 41.752L138.549 46.36C138.25 46.5307 137.866 46.68 137.397 46.808C137.013 46.936 136.522 47.0427 135.925 47.128C135.37 47.2133 134.73 47.256 134.005 47.256ZM130.805 0.919998C132.17 0.919998 133.216 1.32533 133.941 2.136C134.666 2.94666 135.029 3.992 135.029 5.272C135.029 6.552 134.645 7.61866 133.877 8.472C133.152 9.32533 132.064 9.752 130.613 9.752C129.248 9.752 128.181 9.34667 127.413 8.536C126.688 7.68266 126.325 6.65866 126.325 5.464C126.325 4.14133 126.688 3.05333 127.413 2.2C128.181 1.34666 129.312 0.919998 130.805 0.919998ZM180.204 47V26.136C180.204 24.344 179.927 22.936 179.372 21.912C178.817 20.8453 177.857 20.312 176.492 20.312C175.681 20.312 174.849 20.5467 173.996 21.016C173.185 21.4427 172.439 22.0827 171.756 22.936C171.073 23.7893 170.519 24.8133 170.092 26.008C169.665 27.2027 169.452 28.5253 169.452 29.976V47H162.22V26.136C162.22 24.344 161.943 22.936 161.388 21.912C160.833 20.8453 159.873 20.312 158.508 20.312C157.655 20.312 156.801 20.568 155.948 21.08C155.137 21.5493 154.391 22.2533 153.708 23.192C153.068 24.1307 152.535 25.2827 152.108 26.648C151.724 27.9707 151.532 29.464 151.532 31.128V47H144.236V30.872C144.236 28.312 144.065 26.1787 143.724 24.472C143.383 22.7227 143.02 21.3147 142.636 20.248C142.167 19.0107 141.655 18.008 141.1 17.24L146.86 14.936C147.287 15.4053 147.713 15.9813 148.14 16.664C148.481 17.2613 148.823 18.008 149.164 18.904C149.505 19.7573 149.783 20.7387 149.996 21.848C151.063 19.288 152.556 17.4533 154.476 16.344C156.439 15.192 158.508 14.616 160.684 14.616C162.86 14.616 164.545 15.1707 165.74 16.28C166.977 17.3893 167.895 18.8187 168.492 20.568C169.644 18.4347 171.116 16.92 172.908 16.024C174.743 15.0853 176.663 14.616 178.668 14.616C180.332 14.616 181.719 14.8933 182.828 15.448C183.98 15.96 184.876 16.7067 185.516 17.688C186.199 18.6267 186.689 19.7787 186.988 21.144C187.287 22.4667 187.436 23.96 187.436 25.624V47H180.204ZM195.986 61.144V30.872C195.986 28.312 195.815 26.1787 195.474 24.472C195.133 22.7227 194.77 21.3147 194.386 20.248C193.917 19.0107 193.405 18.008 192.85 17.24L198.61 14.936C199.122 15.448 199.591 16.088 200.018 16.856C200.359 17.496 200.701 18.2853 201.042 19.224C201.383 20.12 201.639 21.1867 201.81 22.424C202.535 19.864 203.687 17.9227 205.266 16.6C206.845 15.2773 209.042 14.616 211.858 14.616C213.863 14.616 215.591 15 217.042 15.768C218.535 16.4933 219.751 17.56 220.69 18.968C221.671 20.3333 222.397 21.9973 222.866 23.96C223.335 25.9227 223.57 28.0987 223.57 30.488C223.57 32.92 223.207 35.1813 222.482 37.272C221.757 39.32 220.711 41.0907 219.346 42.584C218.023 44.0773 216.423 45.2507 214.546 46.104C212.669 46.9573 210.578 47.384 208.274 47.384C207.463 47.384 206.631 47.3413 205.778 47.256C204.967 47.1707 204.135 47.0853 203.282 47V59.864L195.986 61.144ZM210.642 19.736C209.575 19.736 208.594 20.0987 207.698 20.824C206.802 21.5493 206.013 22.5093 205.33 23.704C204.69 24.8987 204.178 26.2427 203.794 27.736C203.453 29.2293 203.282 30.7653 203.282 32.344V41.56C203.709 41.688 204.349 41.8373 205.202 42.008C206.055 42.1787 206.802 42.264 207.442 42.264C209.063 42.264 210.407 41.9867 211.474 41.432C212.541 40.8773 213.394 40.1093 214.034 39.128C214.674 38.1467 215.122 36.9733 215.378 35.608C215.634 34.2427 215.762 32.7493 215.762 31.128C215.762 29.6347 215.719 28.2053 215.634 26.84C215.549 25.4747 215.314 24.2587 214.93 23.192C214.589 22.1253 214.077 21.2933 213.394 20.696C212.711 20.056 211.794 19.736 210.642 19.736ZM242.707 14.36C247.614 14.36 251.176 15.8107 253.395 18.712C255.614 21.6133 256.723 25.6027 256.723 30.68C256.723 33.0693 256.424 35.3093 255.827 37.4C255.23 39.448 254.312 41.24 253.075 42.776C251.88 44.2693 250.366 45.464 248.531 46.36C246.696 47.2133 244.563 47.64 242.131 47.64C239.699 47.64 237.587 47.2773 235.795 46.552C234.046 45.784 232.595 44.696 231.443 43.288C230.291 41.88 229.438 40.1733 228.883 38.168C228.371 36.1627 228.115 33.9013 228.115 31.384C228.115 28.952 228.414 26.712 229.011 24.664C229.608 22.5733 230.504 20.7813 231.699 19.288C232.936 17.752 234.472 16.5573 236.307 15.704C238.142 14.808 240.275 14.36 242.707 14.36ZM242.067 19.736C240.83 19.736 239.806 20.0133 238.995 20.568C238.227 21.1227 237.608 21.912 237.139 22.936C236.712 23.9173 236.414 25.0907 236.243 26.456C236.072 27.7787 235.987 29.208 235.987 30.744C235.987 32.3227 236.072 33.816 236.243 35.224C236.456 36.632 236.819 37.8693 237.331 38.936C237.843 39.96 238.526 40.7707 239.379 41.368C240.275 41.9653 241.406 42.264 242.771 42.264C244.008 42.264 245.011 41.9867 245.779 41.432C246.59 40.8773 247.208 40.1093 247.635 39.128C248.104 38.104 248.424 36.9307 248.595 35.608C248.766 34.2853 248.851 32.856 248.851 31.32C248.851 29.7413 248.744 28.248 248.531 26.84C248.36 25.432 248.019 24.1947 247.507 23.128C246.995 22.0613 246.291 21.2293 245.395 20.632C244.542 20.0347 243.432 19.736 242.067 19.736ZM277.37 21.784C276.602 21.784 275.834 21.976 275.066 22.36C274.298 22.744 273.615 23.2773 273.018 23.96C272.42 24.6 271.93 25.3893 271.546 26.328C271.162 27.2667 270.97 28.312 270.97 29.464V47H263.674V30.872C263.674 28.312 263.503 26.1787 263.161 24.472C262.82 22.7227 262.458 21.3147 262.074 20.248C261.604 19.0107 261.092 18.008 260.538 17.24L266.298 14.936C266.682 15.4053 267.087 15.9813 267.514 16.664C267.855 17.2613 268.196 17.9653 268.538 18.776C268.879 19.5867 269.156 20.5467 269.37 21.656C270.223 19.1813 271.46 17.4107 273.082 16.344C274.703 15.2347 276.538 14.68 278.586 14.68C279.567 14.68 280.484 14.808 281.338 15.064C282.191 15.2773 282.596 15.384 282.554 15.384L280.506 22.488C280.548 22.488 280.292 22.3813 279.738 22.168C279.226 21.912 278.436 21.784 277.37 21.784ZM283.828 15.128H289.588L290.868 7.64L296.884 6.296V15.128H304.756L303.86 20.312H296.884V39.256C296.884 40.3653 297.182 41.0907 297.78 41.432C298.377 41.7307 299.038 41.88 299.764 41.88C300.361 41.88 300.958 41.8373 301.556 41.752C302.153 41.6667 302.686 41.56 303.156 41.432C303.71 41.304 304.244 41.1547 304.756 40.984L305.972 45.784L305.396 45.976C305.012 46.1467 304.436 46.3387 303.668 46.552C302.942 46.7227 302.068 46.872 301.044 47C300.062 47.1707 298.974 47.256 297.78 47.256C296.585 47.256 295.476 47.128 294.452 46.872C293.47 46.616 292.617 46.2107 291.892 45.656C291.166 45.0587 290.59 44.312 290.164 43.416C289.78 42.52 289.588 41.4107 289.588 40.088V20.312H283.828V15.128ZM335.263 31.576C335.263 34.136 335.412 36.2907 335.711 38.04C336.052 39.7467 336.415 41.1333 336.799 42.2C337.268 43.48 337.78 44.4827 338.335 45.208L332.639 47.512C332.084 46.9573 331.572 46.296 331.103 45.528C330.719 44.8453 330.356 44.0347 330.015 43.096C329.674 42.1147 329.46 40.9627 329.375 39.64C328.65 42.2 327.476 44.1413 325.855 45.464C324.276 46.744 322.122 47.384 319.391 47.384C317.386 47.384 315.636 47.0213 314.143 46.296C312.692 45.528 311.476 44.4613 310.495 43.096C309.514 41.688 308.788 40.0027 308.319 38.04C307.85 36.0773 307.615 33.9013 307.615 31.512C307.615 29.08 307.978 26.84 308.703 24.792C309.471 22.7013 310.516 20.9093 311.839 19.416C313.204 17.9227 314.826 16.7493 316.703 15.896C318.58 15.0427 320.65 14.616 322.911 14.616C324.191 14.616 325.514 14.7227 326.879 14.936C328.287 15.1067 329.588 15.2987 330.783 15.512C331.978 15.7253 332.98 15.9387 333.791 16.152C334.644 16.3227 335.135 16.4293 335.263 16.472V31.576ZM320.607 42.264C321.674 42.264 322.655 41.9013 323.551 41.176C324.447 40.4507 325.215 39.512 325.855 38.36C326.538 37.1653 327.05 35.8213 327.391 34.328C327.775 32.792 327.967 31.2347 327.967 29.656V20.44C327.54 20.312 326.9 20.1627 326.047 19.992C325.194 19.8213 324.426 19.736 323.743 19.736C322.122 19.736 320.778 20.0133 319.711 20.568C318.687 21.1227 317.855 21.8907 317.215 22.872C316.575 23.8533 316.127 25.0267 315.871 26.392C315.615 27.7573 315.487 29.2507 315.487 30.872C315.487 32.3653 315.53 33.7947 315.615 35.16C315.7 36.5253 315.914 37.7413 316.255 38.808C316.639 39.8747 317.172 40.728 317.855 41.368C318.538 41.9653 319.455 42.264 320.607 42.264ZM362.438 47V26.328C362.438 24.536 362.118 23.1067 361.478 22.04C360.838 20.9307 359.75 20.376 358.214 20.376C357.232 20.376 356.272 20.632 355.333 21.144C354.438 21.6133 353.627 22.3173 352.902 23.256C352.176 24.1947 351.579 25.3467 351.11 26.712C350.683 28.0347 350.47 29.528 350.47 31.192V47H343.174V30.872C343.174 28.312 343.003 26.1787 342.661 24.472C342.32 22.7227 341.958 21.3147 341.574 20.248C341.104 19.0107 340.592 18.008 340.038 17.24L345.798 14.936C346.224 15.4053 346.651 15.9813 347.078 16.664C347.419 17.2613 347.76 18.008 348.102 18.904C348.443 19.7573 348.72 20.7387 348.934 21.848C350.043 19.288 351.643 17.4533 353.734 16.344C355.824 15.192 358.022 14.616 360.326 14.616C363.611 14.616 365.979 15.6187 367.43 17.624C368.923 19.5867 369.67 22.2533 369.67 25.624V47H362.438ZM374.203 15.128H379.963L381.243 7.64L387.259 6.296V15.128H395.131L394.235 20.312H387.259V39.256C387.259 40.3653 387.557 41.0907 388.155 41.432C388.752 41.7307 389.413 41.88 390.139 41.88C390.736 41.88 391.333 41.8373 391.931 41.752C392.528 41.6667 393.061 41.56 393.531 41.432C394.085 41.304 394.619 41.1547 395.131 40.984L396.347 45.784L395.771 45.976C395.387 46.1467 394.811 46.3387 394.043 46.552C393.317 46.7227 392.443 46.872 391.419 47C390.437 47.1707 389.349 47.256 388.155 47.256C386.96 47.256 385.851 47.128 384.827 46.872C383.845 46.616 382.992 46.2107 382.267 45.656C381.541 45.0587 380.965 44.312 380.539 43.416C380.155 42.52 379.963 41.4107 379.963 40.088V20.312H374.203V15.128ZM397.99 31.832C397.99 28.9733 398.374 26.456 399.142 24.28C399.953 22.104 401.041 20.2907 402.406 18.84C403.814 17.3467 405.457 16.2373 407.334 15.512C409.211 14.744 411.238 14.36 413.414 14.36C415.334 14.36 416.955 14.5947 418.278 15.064C419.643 15.5333 420.753 16.1733 421.606 16.984C422.459 17.7947 423.078 18.7547 423.462 19.864C423.889 20.9733 424.102 22.168 424.102 23.448C424.102 24.984 423.675 26.456 422.822 27.864C421.969 29.2293 420.731 30.4453 419.11 31.512C417.531 32.536 415.611 33.368 413.35 34.008C411.089 34.6053 408.55 34.9253 405.734 34.968C405.862 35.9493 406.054 36.888 406.31 37.784C406.609 38.6373 407.014 39.4053 407.526 40.088C408.081 40.728 408.785 41.24 409.638 41.624C410.491 42.008 411.558 42.2 412.838 42.2C413.777 42.2 414.779 42.0933 415.846 41.88C416.913 41.6667 417.894 41.4107 418.79 41.112C419.857 40.7707 420.902 40.3867 421.926 39.96L423.846 44.504C422.737 45.0587 421.542 45.5493 420.262 45.976C419.153 46.36 417.873 46.7013 416.422 47C414.971 47.2987 413.435 47.448 411.814 47.448C409.339 47.448 407.227 47.0853 405.478 46.36C403.729 45.592 402.299 44.5253 401.19 43.16C400.081 41.7947 399.27 40.152 398.758 38.232C398.246 36.312 397.99 34.1787 397.99 31.832ZM412.838 19.352C411.43 19.352 410.257 19.6933 409.318 20.376C408.422 21.016 407.697 21.8693 407.142 22.936C406.587 23.96 406.182 25.1333 405.926 26.456C405.713 27.736 405.585 29.0373 405.542 30.36C407.59 30.2747 409.318 30.0187 410.726 29.592C412.177 29.1227 413.35 28.568 414.246 27.928C415.142 27.2453 415.782 26.52 416.166 25.752C416.593 24.984 416.806 24.216 416.806 23.448C416.806 22.2107 416.443 21.2293 415.718 20.504C414.993 19.736 414.033 19.352 412.838 19.352Z" fill="#68E268"/>
</g>
<defs>
<filter id="filter0_i_53_264" x="0.47998" y="0.920044" width="423.622" height="64.224" filterUnits="userSpaceOnUse" color-interpolation-filters="sRGB">
<feFlood flood-opacity="0" result="BackgroundImageFix"/>
<feBlend mode="normal" in="SourceGraphic" in2="BackgroundImageFix" result="shape"/>
<feColorMatrix in="SourceAlpha" type="matrix" values="0 0 0 0 0 0 0 0 0 0 0 0 0 0 0 0 0 0 127 0" result="hardAlpha"/>
<feOffset dy="4"/>
<feGaussianBlur stdDeviation="2"/>
<feComposite in2="hardAlpha" operator="arithmetic" k2="-1" k3="1"/>
<feColorMatrix type="matrix" values="0 0 0 0 0 0 0 0 0 0 0 0 0 0 0 0 0 0 0.25 0"/>
<feBlend mode="normal" in2="shape" result="effect1_innerShadow_53_264"/>
</filter>
</defs>
</svg>
