<svg width="150" height="133" viewBox="0 0 150 133" fill="none" xmlns="http://www.w3.org/2000/svg">
<g id="Vector" filter="url(#filter0_i_62_45)">
<path d="M75 0C57.7344 0 43.75 13.9572 43.75 31.1719C43.75 43.7393 48.1406 47.2514 71.7969 81.4365C73.3482 83.6715 76.6641 83.6715 78.2161 81.4365C101.849 47.2514 106.25 43.7445 106.25 31.1719C106.25 13.9572 92.2656 0 75 0ZM75 45.7188C68.099 45.7188 62.5 40.1338 62.5 33.25C62.5 26.3662 68.099 20.7812 75 20.7812C81.8958 20.7812 87.5 26.374 87.5 33.25C87.5 40.126 81.901 45.7188 75 45.7188ZM2.61979 59.1227C1.0375 59.7461 0 61.2787 0 62.9672V128.818C0 131.758 2.99219 133.764 5.72917 132.673L41.6667 116.375V52.3168C39.7135 49.0437 38.3333 46.2383 37.3437 43.5107L2.61979 59.1227ZM85.0521 86.1902C82.7865 89.4633 79.0104 91.4375 75 91.4375C70.9844 91.4375 67.224 89.4721 64.9323 86.1695C60.7292 80.0857 51.276 66.6559 50 64.8375V116.141L100 133V64.8375C98.724 66.6559 89.2708 80.0857 85.0521 86.1902ZM144.297 41.8742L108.333 58.1875V133L147.37 115.442C148.958 114.583 150 113.284 150 111.595V45.7188C150 42.7834 147.031 40.5494 144.297 41.8742Z" fill="white"/>
</g>
<defs>
<filter id="filter0_i_62_45" x="0" y="0" width="150" height="137" filterUnits="userSpaceOnUse" color-interpolation-filters="sRGB">
<feFlood flood-opacity="0" result="BackgroundImageFix"/>
<feBlend mode="normal" in="SourceGraphic" in2="BackgroundImageFix" result="shape"/>
<feColorMatrix in="SourceAlpha" type="matrix" values="0 0 0 0 0 0 0 0 0 0 0 0 0 0 0 0 0 0 127 0" result="hardAlpha"/>
<feOffset dy="4"/>
<feGaussianBlur stdDeviation="2"/>
<feComposite in2="hardAlpha" operator="arithmetic" k2="-1" k3="1"/>
<feColorMatrix type="matrix" values="0 0 0 0 0 0 0 0 0 0 0 0 0 0 0 0 0 0 0.25 0"/>
<feBlend mode="normal" in2="shape" result="effect1_innerShadow_62_45"/>
</filter>
</defs>
</svg>
