<svg width="150" height="133" viewBox="0 0 72 125" fill="none" xmlns="http://www.w3.org/2000/svg">
<g id="Vector" filter="url(#filter0_i_62_47)">
<path d="M28.1999 77.3682V112.354C28.1999 113.566 28.4817 114.762 29.0235 115.847L32.5116 122.835C33.9487 125.713 38.0496 125.713 39.4877 122.835L42.9758 115.847C43.5074 114.771 43.7999 113.574 43.7999 112.354V77.3682C41.2649 77.8565 38.6568 78.125 35.9999 78.125C33.343 78.125 30.7349 77.8565 28.1999 77.3682ZM35.9999 0C16.6145 0 0.899902 15.7397 0.899902 35.1562C0.899902 54.5728 16.6145 70.3125 35.9999 70.3125C55.3853 70.3125 71.0999 54.5728 71.0999 35.1563C71.0999 15.7398 55.378 0 35.9999 0ZM35.9999 19.3116C27.4004 19.3116 20.3999 26.3233 20.3999 34.9366C20.3999 37.0957 18.6556 38.8428 16.4999 38.8428C14.3442 38.8428 12.5999 37.3047 12.5999 34.9366C12.5999 22.0118 23.0958 11.4991 35.9999 11.4991C38.1556 11.4991 39.8999 13.2461 39.8999 15.1856C39.8999 17.125 38.1449 19.3116 35.9999 19.3116Z" fill="white"/>
</g>
<defs>
<filter id="filter0_i_62_47" x="0.899902" y="0" width="70.2002" height="128.993" filterUnits="userSpaceOnUse" color-interpolation-filters="sRGB">
<feFlood flood-opacity="0" result="BackgroundImageFix"/>
<feBlend mode="normal" in="SourceGraphic" in2="BackgroundImageFix" result="shape"/>
<feColorMatrix in="SourceAlpha" type="matrix" values="0 0 0 0 0 0 0 0 0 0 0 0 0 0 0 0 0 0 127 0" result="hardAlpha"/>
<feOffset dy="4"/>
<feGaussianBlur stdDeviation="2"/>
<feComposite in2="hardAlpha" operator="arithmetic" k2="-1" k3="1"/>
<feColorMatrix type="matrix" values="0 0 0 0 0 0 0 0 0 0 0 0 0 0 0 0 0 0 0.25 0"/>
<feBlend mode="normal" in2="shape" result="effect1_innerShadow_62_47"/>
</filter>
</defs>
</svg>
