<svg width="28" height="29" viewBox="0 0 28 29" fill="none" xmlns="http://www.w3.org/2000/svg">
<path d="M27.8092 10.6869C27.7239 10.4355 27.5668 10.2146 27.3573 10.0515C27.1479 9.88837 26.8953 9.79016 26.6306 9.76898L18.8898 9.1539L15.5401 1.73894C15.4334 1.50012 15.2599 1.29728 15.0405 1.15489C14.8211 1.01251 14.5652 0.936667 14.3036 0.936524C14.042 0.93638 13.786 1.01194 13.5664 1.15408C13.3469 1.29623 13.1731 1.49888 13.0662 1.73758L9.7165 9.1539L1.97567 9.76898C1.71559 9.78958 1.46695 9.88468 1.2595 10.0429C1.05205 10.2011 0.894577 10.4157 0.805913 10.6611C0.717249 10.9065 0.701152 11.1722 0.759547 11.4265C0.817942 11.6807 0.948357 11.9128 1.13519 12.0949L6.85561 17.6714L4.83248 26.4319C4.77105 26.6971 4.79074 26.9746 4.88899 27.2285C4.98725 27.4823 5.15953 27.7008 5.38348 27.8555C5.60744 28.0102 5.87272 28.094 6.14491 28.0961C6.4171 28.0982 6.68364 28.0184 6.90992 27.8671L14.3032 22.9383L21.6964 27.8671C21.9277 28.0207 22.2004 28.0997 22.478 28.0936C22.7555 28.0876 23.0246 27.9966 23.2489 27.8331C23.4732 27.6695 23.6421 27.4412 23.7328 27.1788C23.8235 26.9164 23.8316 26.6326 23.7562 26.3654L21.2727 17.6755L27.4317 12.1329C27.835 11.769 27.983 11.2015 27.8092 10.6869Z" fill="none"/>
<path d="M27.8092 10.6869C27.7239 10.4355 27.5668 10.2146 27.3573 10.0515C27.1479 9.88837 26.8953 9.79016 26.6306 9.76898L18.8898 9.1539L15.5401 1.73894C15.4334 1.50012 15.2599 1.29728 15.0405 1.15489C14.8211 1.01251 14.5652 0.936667 14.3036 0.936524C14.042 0.93638 13.786 1.01194 13.5664 1.15408C13.3469 1.29623 13.1731 1.49888 13.0662 1.73758L9.7165 9.1539L1.97567 9.76898C1.71559 9.78958 1.46695 9.88468 1.2595 10.0429C1.05205 10.2011 0.894577 10.4157 0.805913 10.6611C0.717249 10.9065 0.701152 11.1722 0.759547 11.4265C0.817942 11.6807 0.948357 11.9128 1.13519 12.0949L6.85561 17.6714L4.83248 26.4319C4.77105 26.6971 4.79074 26.9746 4.88899 27.2285C4.98725 27.4823 5.15953 27.7008 5.38348 27.8555C5.60744 28.0102 5.87272 28.094 6.14491 28.0961C6.4171 28.0982 6.68364 28.0184 6.90992 27.8671L14.3032 22.9383L21.6964 27.8671C21.9277 28.0207 22.2004 28.0997 22.478 28.0936C22.7555 28.0876 23.0246 27.9966 23.2489 27.8331C23.4732 27.6695 23.6421 27.4412 23.7328 27.1788C23.8235 26.9164 23.8316 26.6326 23.7562 26.3654L21.2727 17.6755L27.4317 12.1329C27.835 11.769 27.983 11.2015 27.8092 10.6869Z" fill="#77DD77"/>
</svg>
