<svg width="34" height="33" viewBox="0 0 34 33" fill="none" xmlns="http://www.w3.org/2000/svg">
<path d="M7.44723 28.4292C7.40071 28.6284 7.39987 28.8355 7.44478 29.035C7.48969 29.2345 7.57918 29.4213 7.70654 29.5813C7.83391 29.7414 7.99584 29.8705 8.1802 29.959C8.36456 30.0475 8.56657 30.0932 8.77109 30.0925C9.0393 30.0926 9.30152 30.0132 9.52467 29.8644L16.9179 24.9356L24.3111 29.8644C24.5424 30.018 24.8152 30.097 25.0927 30.091C25.3703 30.0849 25.6393 29.9939 25.8636 29.8304C26.088 29.6668 26.2568 29.4385 26.3475 29.1761C26.4382 28.9137 26.4464 28.6299 26.3709 28.3627L23.8875 19.6728L30.0465 14.1302C30.2437 13.9526 30.3846 13.7211 30.4517 13.4642C30.5187 13.2074 30.509 12.9366 30.4238 12.6852C30.3386 12.4338 30.1815 12.2129 29.9721 12.0498C29.7626 11.8868 29.51 11.7887 29.2454 11.7677L21.5046 11.1512L18.1549 3.73625C18.0482 3.49743 17.8747 3.29459 17.6552 3.15221C17.4358 3.00982 17.1799 2.93398 16.9183 2.93384C16.6568 2.93369 16.4008 3.00925 16.1812 3.1514C15.9616 3.29354 15.7879 3.49619 15.6809 3.7349L12.3312 11.1512L4.59041 11.7663C4.33034 11.7869 4.0817 11.882 3.87425 12.0402C3.6668 12.1984 3.50932 12.413 3.42066 12.6584C3.332 12.9038 3.3159 13.1695 3.37429 13.4238C3.43269 13.678 3.5631 13.9101 3.74994 14.0922L9.47171 19.6687L7.44723 28.4292ZM16.9179 7.59241L19.6905 13.731L20.4889 13.7948L25.8835 14.2226L21.4421 18.2199L21.4407 18.2226L20.8121 18.7875L21.0443 19.5981V19.6022L22.7456 25.5561L16.9179 21.6715V7.59241Z" fill="#77DD77"/>
</svg>
