<svg width="34" height="33" viewBox="0 0 34 33" fill="none" xmlns="http://www.w3.org/2000/svg">
<path d="M9.34329 19.6688L7.32017 28.4293C7.25752 28.6946 7.27633 28.9726 7.37413 29.227C7.47194 29.4814 7.6442 29.7004 7.86841 29.8554C8.09262 30.0104 8.35836 30.0942 8.63093 30.0958C8.90349 30.0974 9.17021 30.0168 9.39625 29.8645L16.7895 24.9357L24.1827 29.8645C24.414 30.018 24.6868 30.0971 24.9643 30.091C25.2419 30.0849 25.5109 29.994 25.7352 29.8304C25.9595 29.6669 26.1284 29.4386 26.2191 29.1762C26.3098 28.9138 26.318 28.6299 26.2425 28.3628L23.7591 19.6728L29.9181 14.1303C30.1153 13.9527 30.2562 13.7211 30.3233 13.4643C30.3903 13.2075 30.3806 12.9366 30.2954 12.6852C30.2102 12.4338 30.0531 12.213 29.8437 12.0499C29.6342 11.8868 29.3816 11.7887 29.117 11.7677L21.3761 11.1513L18.0264 3.73631C17.9196 3.49755 17.746 3.2948 17.5265 3.15253C17.307 3.01027 17.051 2.93457 16.7895 2.93457C16.5279 2.93457 16.2719 3.01027 16.0524 3.15253C15.833 3.2948 15.6593 3.49755 15.5525 3.73631L12.2028 11.1513L4.462 11.7663C4.20192 11.787 3.95328 11.882 3.74583 12.0403C3.53838 12.1985 3.38091 12.4131 3.29224 12.6585C3.20358 12.9038 3.18748 13.1695 3.24587 13.4238C3.30427 13.6781 3.43469 13.9102 3.62152 14.0923L9.34329 19.6688ZM13.2171 13.7949C13.4595 13.7758 13.6922 13.6919 13.891 13.5519C14.0897 13.4119 14.2472 13.221 14.3468 12.9992L16.7895 7.59382L19.2322 12.9992C19.3318 13.221 19.4892 13.4119 19.688 13.5519C19.8867 13.6919 20.1195 13.7758 20.3619 13.7949L25.755 14.2226L21.3137 18.22C20.9281 18.5676 20.7746 19.1026 20.9158 19.6022L22.6172 25.5562L17.5444 22.1739C17.3218 22.0245 17.0597 21.9447 16.7915 21.9447C16.5234 21.9447 16.2613 22.0245 16.0386 22.1739L10.7378 25.7083L12.1634 19.5357C12.2157 19.3087 12.2087 19.072 12.1431 18.8485C12.0774 18.625 11.9554 18.4221 11.7887 18.2594L7.66369 14.2375L13.2171 13.7949Z" fill="#77DD77"/>
</svg>
