<svg width="24" height="25" viewBox="0 0 24 25" fill="none" xmlns="http://www.w3.org/2000/svg">
<g id="Vector" filter="url(#filter0_i_62_127)">
<path d="M21.7268 8.42062C21.4199 8.17723 21.2365 7.80358 21.2365 7.41193C21.2365 6.31253 20.8826 5.29439 20.2928 4.47145C18.5241 2.0036 14.8343 0 11.798 0C8.76164 0 5.07105 2.00159 3.30276 4.46996C2.71304 5.29316 2.35961 6.31187 2.35961 7.41193C2.35961 7.80358 2.17618 8.17723 1.86933 8.42062C0.719945 9.33228 0 10.7746 0 12.3532C0 13.9318 0.719945 15.3742 1.86933 16.2858C2.1761 16.5291 2.36012 16.9029 2.35961 17.2945C2.35961 18.3943 2.71289 19.412 3.30239 20.2343C5.07218 22.7032 8.76039 24.7064 11.798 24.7064C14.8355 24.7064 18.523 22.7012 20.2932 20.2329C20.8828 19.4108 21.2365 18.3937 21.2365 17.2945C21.2365 16.9029 21.4199 16.5292 21.7268 16.2858C22.8761 15.3742 23.5961 13.9318 23.5961 12.3532C23.5961 10.7746 22.8761 9.33228 21.7268 8.42062ZM12.8539 15.4298C11.6083 16.7244 9.53305 16.7139 8.30052 15.4068L7.02963 14.0591C6.5872 13.5899 6.59212 12.8557 7.04081 12.3925C7.51917 11.8986 8.31294 11.904 8.78461 12.4042L9.24809 12.8957C9.9739 13.6654 11.196 13.6717 11.9296 12.9094L14.8102 9.91623C15.2875 9.42023 16.0825 9.42343 16.5558 9.92327C16.9991 10.3913 16.9961 11.1252 16.5491 11.5897L12.8539 15.4298Z" fill="#77DD77"/>
</g>
<defs>
<filter id="filter0_i_62_127" x="0" y="0" width="23.5962" height="28.7065" filterUnits="userSpaceOnUse" color-interpolation-filters="sRGB">
<feFlood flood-opacity="0" result="BackgroundImageFix"/>
<feBlend mode="normal" in="SourceGraphic" in2="BackgroundImageFix" result="shape"/>
<feColorMatrix in="SourceAlpha" type="matrix" values="0 0 0 0 0 0 0 0 0 0 0 0 0 0 0 0 0 0 127 0" result="hardAlpha"/>
<feOffset dy="4"/>
<feGaussianBlur stdDeviation="2"/>
<feComposite in2="hardAlpha" operator="arithmetic" k2="-1" k3="1"/>
<feColorMatrix type="matrix" values="0 0 0 0 0 0 0 0 0 0 0 0 0 0 0 0 0 0 0.25 0"/>
<feBlend mode="normal" in2="shape" result="effect1_innerShadow_62_127"/>
</filter>
</defs>
</svg>
